<svg xmlns="http://www.w3.org/2000/svg" viewBox="0 0 486.5 414.2"><defs><style>.cls-1{fill:#fece6f;}.cls-2{fill:#c5280e;}.cls-3{fill:#19c4c8;}.cls-4,.cls-6{fill:none;}.cls-4{stroke:#000;stroke-linecap:round;stroke-miterlimit:10;}.cls-5{fill:#e79d29;}.cls-7{fill:#faf7f9;}</style></defs><g id="Layer_2" data-name="Layer 2"><g id="stroke"><path class="cls-1" d="M485,152.6c5.2,15.4-10.3,36-51.5,54.1s-51.6,38.6-49,64.4,10.3,66.8-33.2,90a7,7,0,0,0-2.9-4.9c-6.9-5.2-15-3.4-19.5-1.7l-2.3-1.5c6-2.6,29.2-15.3,27-53.5C351,255.7,327.8,178.3,387.1,150S479.9,137.1,485,152.6Z"/><path class="cls-1" d="M317.5,128.5c-.1,1.6-3.5,37.4-46.4,57.4l-3.7,1.5c6.6-11.5,3.7-34.8,3.7-34.8l-.2-1c23.1-6.4,33.3-23.4,36-33.2l2.9.7a400.1,400.1,0,0,1,63.3-41.6h.1c5.3,2.1,8.3,3.5,8.3,3.5-1.7,4.8-3.7,9.7-5.8,14.6h0C348.1,106.9,328.5,120,317.5,128.5Z"/><path class="cls-1" d="M136.2,86c32.8-19.5,67.2-28.1,99.6-30.4C246.7,42,283,.5,317.5.5c0,0-37.4,26.4-45.1,54.8a334.3,334.3,0,0,1,77.7,14.2c9.8,3,17.6,5.8,23,8a400.1,400.1,0,0,0-63.3,41.6l-2.9-.7c1-3.6,1-6.2.3-7.1-2.5-3.1-66.4-8.4-110.8,23.2-7.9,5.6-9.5,13.5.4,15.3,19.3,3.6,48.3,7.4,69.8,2.9l4.3-1.1.2,1s2.9,23.3-3.7,34.8c-24.4,9.6-49.9,1.9-67.3-6.4a137.2,137.2,0,0,1-16.8-9.5c-59.3,3.1-110.4,21.7-143.4,37l-6.4-1.8a341.7,341.7,0,0,1,21.8-40.1,272.3,272.3,0,0,1,34.4-43.8C72.2,97.5,25.5,89.2,19.2,88.2V88c7.9-1.1,80.3-10.7,116.9-2Zm100,4.6c1.4-.2,2.1-4.3,1.4-9.2s-2.3-8.8-3.7-8.7-2.1,4.4-1.4,9.3S234.8,90.8,236.2,90.6ZM213,95.8c1.4-.2,2.1-4.4,1.4-9.3s-2.3-8.8-3.7-8.6-2.1,4.4-1.4,9.3S211.6,96,213,95.8Z"/><path class="cls-1" d="M317.5,128.5c11-8.5,30.6-21.6,58.2-32.9-15.1,34.6-40.3,68.6-81.8,91.4a273.6,273.6,0,0,1-54.1,22.3,303.4,303.4,0,0,1-38.3,8.5c-35.3,5.7-68.9,5.1-96.7,2.4,27.1-14.6,60.5-29.7,95.3-39.2,17.4,8.3,42.9,16,67.3,6.4l3.7-1.5C314,165.9,317.4,130.1,317.5,128.5Z"/><path class="cls-1" d="M351.3,361.1c1.7,10.5-12.9,29-24.8,31.2a89.7,89.7,0,0,1-12,1.2c7.1-1.4,15.9-14.2,17.8-18.1s4.2-14.8-3.4-20.9c4.5-1.7,12.6-3.5,19.5,1.7A7,7,0,0,1,351.3,361.1Z"/><path class="cls-2" d="M350.1,69.4h0a334.3,334.3,0,0,0-77.7-14.2C280.1,26.9,317.5.5,317.5.5S336.3,9.5,350.1,69.4Z"/><path class="cls-1" d="M328.9,354.5c7.6,6.1,4.8,17.8,3.4,20.9s-10.7,16.7-17.8,18.1h-.2c-6,.4-12.6.5-18.7.5,24.3-15.1,19.1-27.6,5-32.7a10.5,10.5,0,0,0-2.4-.6s2.9-9.3,15.6-10h0a34.8,34.8,0,0,1,6.3.3,20.8,20.8,0,0,1,6.5,2Z"/><path class="cls-1" d="M207.6,357.8a64.8,64.8,0,0,1-17.9-7.1h0c-15.6-9.5-19.4-24.1-17.8-38.9,2.1-20.8,14.7-42.1,20.2-51l1.9-3.5s18.2,7.7,45.1-2.1c.5,17,2.2,33,6.2,39.1,6.3,9.5,15.5,16.9,21.6,21.4h.1c9.4-9.3,28.7-23.1,50.5-8.5,16.4,10.9,8.9,28.4-3.7,43.5h0c-12.7.7-15.6,10-15.6,10-13.4-2.4-27.9,14.4-28.6,15.2a28.4,28.4,0,0,0-6.6-.5c-3.5-10.9-20.2-3.8-20.2-3.8a9.2,9.2,0,0,1-5.1.6l-.2,2c10.1.8,12.3,8.7,10.4,18.1a23.9,23.9,0,0,1-15.6,18,29.1,29.1,0,0,1-15.9.5l-2-.5c-14.1-4-12.4-16-9.8-30.9.7-4.1,1.5-8.5,2.1-12.9C207,363.8,207.3,360.8,207.6,357.8Z"/><path d="M307.2,111.3c.7.9.7,3.5-.3,7.1-2.7,9.8-12.9,26.8-36,33.2l-4.3,1.1c-21.5,4.5-50.5.7-69.8-2.9-9.9-1.8-8.3-9.7-.4-15.3C240.8,102.9,304.7,108.2,307.2,111.3Z"/><path class="cls-1" d="M300.6,361.3c14.1,5.1,19.3,17.6-5,32.7-9.7,0-17.8-.2-18.4-.2a38.9,38.9,0,0,0,1.7-4.1c3.1-9.6-3.6-12.8-9.3-13.8h0c.7-.8,15.2-17.6,28.6-15.2A10.5,10.5,0,0,1,300.6,361.3Z"/><path class="cls-1" d="M269.6,375.9c5.7,1,12.4,4.2,9.3,13.8a38.9,38.9,0,0,1-1.7,4.1h0c-5.6,11.9-16.2,14.3-38.3,15.4,20.3-4.8,26.8-20.7,24.5-32.4a7.4,7.4,0,0,0-.4-1.4,28.4,28.4,0,0,1,6.6.5Z"/><path class="cls-1" d="M263.4,376.8c2.3,11.7-4.2,27.6-24.5,32.4a64.9,64.9,0,0,1-6.6,1.1,23.9,23.9,0,0,0,15.6-18c1.9-9.4-.3-17.3-10.4-18.1l.2-2a9.2,9.2,0,0,0,5.1-.6s16.7-7.1,20.2,3.8A7.4,7.4,0,0,1,263.4,376.8Z"/><path class="cls-1" d="M239.8,209.3c-.4,7.2-.8,18.7-.9,31-16.7,7.8-40.3,3.2-40.3,3.2a142.2,142.2,0,0,0,2.9-25.7A303.4,303.4,0,0,0,239.8,209.3Z"/><path class="cls-3" d="M238.9,240.3c0,4.9,0,9.9.2,14.9-26.9,9.8-45.1,2.1-45.1,2.1a63.9,63.9,0,0,0,4.6-13.8S222.2,248.1,238.9,240.3Z"/><path d="M237.6,81.4c.7,4.9,0,9-1.4,9.2s-3.1-3.6-3.7-8.6-.1-9.1,1.4-9.3S236.9,76.4,237.6,81.4Z"/><path class="cls-1" d="M216.4,410.8h0a150.4,150.4,0,0,1-21.1,2.7c-8.6-2.1-20.2-8.6-21.2-18.4-.5-5.9,1.5-12,6.2-15.7,9.7-7.8,24.3,0,24.3,0-2.6,14.9-4.3,26.9,9.8,30.9Z"/><path d="M214.4,86.5c.7,4.9,0,9.1-1.4,9.3s-3.1-3.7-3.7-8.6-.1-9.1,1.4-9.3S213.8,81.6,214.4,86.5Z"/><path class="cls-1" d="M207.6,357.8c-.3,3-.6,6-.9,8.7-.6,4.4-1.4,8.8-2.1,12.9,0,0-14.6-7.8-24.3,0-4.7,3.7-6.7,9.8-6.2,15.7,1,9.8,12.6,16.3,21.2,18.4a61,61,0,0,1-14.4-.6c-12.9-2.6-20.6-15.5-18-31,.6-3.6,1.9-5.9,3.6-7.4a.1.1,0,0,1,.1-.1,8.6,8.6,0,0,1,2-1.3c5.8-2.7,14,.3,17.5-1.5,5-2.5,3.7-20.1,3.6-20.9A64.8,64.8,0,0,0,207.6,357.8Z"/><path class="cls-1" d="M189.7,350.7c.1.8,1.4,18.4-3.6,20.9-3.5,1.8-11.7-1.2-17.5,1.5-3-3.7-12.2-13.3-24.1-13.5-.2-4.1-.2-7.9-.1-11.4,1.4-34.3,19.4-37,27.5-36.4-1.6,14.8,2.2,29.4,17.8,38.9Z"/><path class="cls-1" d="M183.3,171.5a137.2,137.2,0,0,0,16.8,9.5c-34.8,9.5-68.2,24.6-95.3,39.2h0a388.8,388.8,0,0,1-64.9-11.7C72.9,193.2,124,174.6,183.3,171.5Z"/><path class="cls-1" d="M180.9,412.9c-20.6,2.6-25.8-5.9-25.8-5.9a42.7,42.7,0,0,1-2.7-5.1c-8.7-19.6,13-27.1,14.1-27.4-1.7,1.5-3,3.8-3.6,7.4C160.3,397.4,168,410.3,180.9,412.9Z"/><path class="cls-1" d="M168.6,373.1a8.6,8.6,0,0,0-2,1.3.1.1,0,0,0-.1.1c-1.1.3-22.8,7.8-14.1,27.4-4.8,1.1-9.6,1.9-14.4,1.1a13.7,13.7,0,0,1-5.8-2.4c-5.1-3.7-7.4-10.6-8.1-16.9-1-9.3,2.2-18.6,11.5-22.4a24.5,24.5,0,0,1,8.9-1.7C156.4,359.8,165.6,369.4,168.6,373.1Z"/><path class="cls-1" d="M144.5,359.6a24.5,24.5,0,0,0-8.9,1.7c-9.3,3.8-12.5,13.1-11.5,22.4.7,6.3,3,13.2,8.1,16.9-11.9.8-24.2-3-24.9-21.2-1.3-30.2,27.6-31.5,37.1-31.2C144.3,351.7,144.3,355.5,144.5,359.6Z"/><path class="cls-2" d="M89.7,122.8a272.3,272.3,0,0,0-34.4,43.8C21.4,135.5,19.4,91.7,19.2,88.2,25.5,89.2,72.2,97.5,89.7,122.8Z"/><path class="cls-4" d="M351,361.3l.3-.2c43.5-23.2,35.8-64.3,33.2-90s7.8-46.4,49-64.4S490.2,168,485,152.6s-38.6-31-97.9-2.6S351,255.7,353.6,299.5c2.2,38.2-21,50.9-27,53.5"/><path class="cls-4" d="M239.8,209.3c-.4,7.2-.8,18.7-.9,31,0,4.9,0,9.9.2,14.9.5,17,2.2,33,6.2,39.1,6.3,9.5,15.5,16.9,21.6,21.4"/><path class="cls-4" d="M260.8,322.7a61.1,61.1,0,0,1,6.1-7h.1c9.4-9.3,28.7-23.1,50.5-8.5,16.4,10.9,8.9,28.4-3.7,43.5"/><path class="cls-4" d="M171.9,311.8c-8.1-.6-26.1,2.1-27.5,36.4-.1,3.5-.1,7.3.1,11.4"/><path class="cls-4" d="M132.2,400.6c-11.9.8-24.2-3-24.9-21.2-1.3-30.2,27.6-31.5,37.1-31.2"/><path class="cls-4" d="M168.6,373.1c-3-3.7-12.2-13.3-24.1-13.5a24.5,24.5,0,0,0-8.9,1.7c-9.3,3.8-12.5,13.1-11.5,22.4.7,6.3,3,13.2,8.1,16.9A13.7,13.7,0,0,0,138,403c4.8.8,9.6,0,14.4-1.1"/><path class="cls-4" d="M189.7,350.7a64.8,64.8,0,0,0,17.9,7.1"/><path class="cls-4" d="M201.5,217.8a142.2,142.2,0,0,1-2.9,25.7,63.9,63.9,0,0,1-4.6,13.8l-1.9,3.5c-5.5,8.9-18.1,30.2-20.2,51-1.6,14.8,2.2,29.4,17.8,38.9"/><path class="cls-4" d="M198.6,243.5s23.6,4.6,40.3-3.2"/><path class="cls-4" d="M194,257.3s18.2,7.7,45.1-2.1"/><path class="cls-4" d="M209.3,314.9s0,23.3-1.7,42.9c-.3,3-.6,6-.9,8.7-.6,4.4-1.4,8.8-2.1,12.9-2.6,14.9-4.3,26.9,9.8,30.9l2,.5a29.1,29.1,0,0,0,15.9-.5,23.9,23.9,0,0,0,15.6-18c1.9-9.4-.3-17.3-10.4-18.1-3.9-.3-8.9.5-15.3,2.6"/><path class="cls-4" d="M240.2,335.6s-18,28.3-10.3,33.5a19.3,19.3,0,0,0,7.8,3.1,9.2,9.2,0,0,0,5.1-.6s16.7-7.1,20.2,3.8a7.4,7.4,0,0,1,.4,1.4c2.3,11.7-4.2,27.6-24.5,32.4a64.9,64.9,0,0,1-6.6,1.1"/><path class="cls-4" d="M277.2,393.8c-5.6,11.9-16.2,14.3-38.3,15.4"/><path class="cls-4" d="M269.6,375.9c5.7,1,12.4,4.2,9.3,13.8a38.9,38.9,0,0,1-1.7,4.1"/><path class="cls-4" d="M263,375.4a28.4,28.4,0,0,1,6.6.5"/><path class="cls-4" d="M269.6,375.9h0c.7-.8,15.2-17.6,28.6-15.2a10.5,10.5,0,0,1,2.4.6c14.1,5.1,19.3,17.6-5,32.7a5.7,5.7,0,0,1-1.3.8"/><path class="cls-4" d="M314.3,393.5c-6,.4-12.6.5-18.7.5-9.7,0-17.8-.2-18.4-.2h0"/><path class="cls-4" d="M328.9,354.5c4.5-1.7,12.6-3.5,19.5,1.7a7,7,0,0,1,2.9,4.9c1.7,10.5-12.9,29-24.8,31.2a89.7,89.7,0,0,1-12,1.2"/><path class="cls-4" d="M298.2,360.7s2.9-9.3,15.6-10h0a34.8,34.8,0,0,1,6.3.3,20.8,20.8,0,0,1,6.5,2l2.3,1.5c7.6,6.1,4.8,17.8,3.4,20.9s-10.7,16.7-17.8,18.1h-.2"/><path class="cls-4" d="M166.5,374.5c-1.7,1.5-3,3.8-3.6,7.4-2.6,15.5,5.1,28.4,18,31a61,61,0,0,0,14.4.6,150.4,150.4,0,0,0,21.1-2.7"/><path class="cls-4" d="M189.7,350.7h0c.1.8,1.4,18.4-3.6,20.9-3.5,1.8-11.7-1.2-17.5,1.5a8.6,8.6,0,0,0-2,1.3"/><path class="cls-4" d="M204.6,379.4s-14.6-7.8-24.3,0c-4.7,3.7-6.7,9.8-6.2,15.7,1,9.8,12.6,16.3,21.2,18.4h0"/><path class="cls-4" d="M166.6,374.4a.1.1,0,0,0-.1.1c-1.1.3-22.8,7.8-14.1,27.4a42.7,42.7,0,0,0,2.7,5.1s5.2,8.5,25.8,5.9"/><path class="cls-4" d="M104.8,220.2a388.8,388.8,0,0,1-64.9-11.7l-6.4-1.8a341.7,341.7,0,0,1,21.8-40.1,272.3,272.3,0,0,1,34.4-43.8"/><path class="cls-4" d="M375.7,95.6c-15.1,34.6-40.3,68.6-81.8,91.4a273.6,273.6,0,0,1-54.1,22.3,303.4,303.4,0,0,1-38.3,8.5c-35.3,5.7-68.9,5.1-96.7,2.4"/><path class="cls-4" d="M381.5,81c-1.7,4.8-3.7,9.7-5.8,14.6"/><path class="cls-4" d="M373.1,77.5c-5.4-2.2-13.2-5-23-8a334.3,334.3,0,0,0-77.7-14.2"/><path class="cls-4" d="M381.5,81s-3-1.4-8.3-3.5"/><path class="cls-4" d="M235.8,55.6C203.4,57.9,169,66.5,136.2,86h-.1"/><path class="cls-4" d="M232.5,59.8s1.1-1.6,3.3-4.2C246.7,42,283,.5,317.5.5c0,0,18.8,9,32.6,68.9"/><path class="cls-4" d="M317.5.5s-37.4,26.4-45.1,54.8a35.4,35.4,0,0,0-1.3,7.1"/><path class="cls-4" d="M178.3,168s1.8,1.4,5,3.5a137.2,137.2,0,0,0,16.8,9.5c17.4,8.3,42.9,16,67.3,6.4l3.7-1.5c42.9-20,46.3-55.8,46.4-57.4h0"/><path class="cls-4" d="M143.3,88.1a66,66,0,0,0-7.1-2.1h-.1c-36.6-8.7-109,.9-116.9,2-.1.1-.1.2,0,.2h0c6.3,1,53,9.3,70.5,34.6l1,1.4"/><path class="cls-4" d="M19.2,88v.2c.2,3.5,2.2,47.3,36.1,78.4"/><path class="cls-4" d="M.5,229.9s14.6-9.8,39.4-21.4c33-15.3,84.1-33.9,143.4-37,5-.3,10.1-.4,15.3-.4"/><path class="cls-4" d="M40.4,260.2s25.9-19.4,64.4-40h0c27.1-14.6,60.5-29.7,95.3-39.2,5.5-1.5,10.9-2.8,16.4-4"/><path class="cls-4" d="M307.2,137.1a126.4,126.4,0,0,1,10.3-8.6c11-8.5,30.6-21.6,58.2-32.9h0C404.2,83.9,441.2,74.2,486,73.8"/><path class="cls-4" d="M309.8,119.1a400.1,400.1,0,0,1,63.3-41.6h.1c27.9-14.8,62.1-28.4,96.4-30.6"/><path class="cls-4" d="M271.1,152.6s2.9,23.3-3.7,34.8"/><path class="cls-4" d="M306.9,118.4c1-3.6,1-6.2.3-7.1-2.5-3.1-66.4-8.4-110.8,23.2-7.9,5.6-9.5,13.5.4,15.3,19.3,3.6,48.3,7.4,69.8,2.9l4.3-1.1C294,145.2,304.2,128.2,306.9,118.4Z"/><path class="cls-4" d="M214.4,86.5c.7,4.9,0,9.1-1.4,9.3s-3.1-3.7-3.7-8.6-.1-9.1,1.4-9.3S213.8,81.6,214.4,86.5Z"/><path class="cls-4" d="M237.6,81.4c.7,4.9,0,9-1.4,9.2s-3.1-3.6-3.7-8.6-.1-9.1,1.4-9.3S236.9,76.4,237.6,81.4Z"/><path class="cls-5" d="M433.5,206.7c-41.2,18-51.6,38.6-49,64.4s10.3,66.8-33.2,90a7,7,0,0,0-2.9-4.9c14.6-7.3,22.3-22,26.4-35.5s4.3-26.7,2.3-40.2c-8-54.1,30.5-79.8,68.1-93.1,39.7-13.9,39.8-34.5,39.8-34.8C490.2,168,474.7,188.6,433.5,206.7Z"/><path class="cls-6" d="M326.6,353c6-2.6,29.2-15.3,27-53.5C351,255.7,327.8,178.3,387.1,150s92.8-12.9,97.9,2.6"/><path class="cls-6" d="M351.3,361.1l-.3.2"/><path class="cls-5" d="M239.8,209.3c-.3,4-.5,9.4-.6,15.4a91.8,91.8,0,0,1-39,9.5,151.1,151.1,0,0,0,1.3-16.4A303.4,303.4,0,0,0,239.8,209.3Z"/><path class="cls-6" d="M267,315.7h-.1c-6.1-4.5-15.3-11.9-21.6-21.4-4-6.1-5.7-22.1-6.2-39.1-.2-5-.2-10-.2-14.9s.1-10.8.3-15.6"/><path class="cls-5" d="M313.8,350.7h0c-12.7.7-15.6,10-15.6,10-13.4-2.4-27.9,14.4-28.6,15.2a28.4,28.4,0,0,0-6.6-.5c-3.5-10.9-20.2-3.8-20.2-3.8s-5.2,2.6-12.9-2.5c-3.8-2.6-1.4-10.8,2.1-18.4,0,0,13.3,28.5,49.2,8.2,47.5-33.9,2.1-54.8,2.1-54.8,9.5-4.3,21.5-5.4,34.2,3.1C333.9,318.1,326.4,335.6,313.8,350.7Z"/><path class="cls-6" d="M283.3,304.1A57.3,57.3,0,0,0,267,315.7h-.1a61.1,61.1,0,0,0-6.1,7"/><path class="cls-6" d="M171.9,311.8c-8.1-.6-26.1,2.1-27.5,36.4-.1,3.5-.1,7.3.1,11.4"/><path class="cls-6" d="M132.2,400.6c-11.9.8-24.2-3-24.9-21.2-1.3-30.2,27.6-31.5,37.1-31.2"/><path class="cls-5" d="M168.6,373.1a8.6,8.6,0,0,0-2,1.3.1.1,0,0,0-.1.1,28.3,28.3,0,0,0-8.4,4.5h0c-5.5,4.2-10.8,11.5-5.7,22.9a47.7,47.7,0,0,1-11.2,1.4c-21.4-32.4,11-41.7,11.7-42h.1a37.7,37.7,0,0,1,9.8,6h.1A49.9,49.9,0,0,1,168.6,373.1Z"/><path class="cls-6" d="M141.2,403.3a17.3,17.3,0,0,1-3.2-.3,13.7,13.7,0,0,1-5.8-2.4c-5.1-3.7-7.4-10.6-8.1-16.9-1-9.3,2.2-18.6,11.5-22.4a24.5,24.5,0,0,1,8.9-1.7,25.6,25.6,0,0,1,8.4,1.7"/><path class="cls-6" d="M200.2,234.2c-.4,3.1-.9,6.2-1.6,9.3a63.9,63.9,0,0,1-4.6,13.8l-1.9,3.5c-4.5,7.3-13.6,22.7-18,39.4"/><path class="cls-6" d="M198.6,243.5s23.6,4.6,40.3-3.2"/><path class="cls-6" d="M194,257.3s18.2,7.7,45.1-2.1"/><path class="cls-7" d="M209.2,317.9c0,6.8-.3,24.5-1.6,39.9a64.8,64.8,0,0,1-17.9-7.1h0a37.9,37.9,0,0,1-7.2-5.5c-9.5-9.2-11.9-21.2-10.6-33.4a65.9,65.9,0,0,1,2.2-11.6S191.2,274.4,209.2,317.9Z"/><path class="cls-5" d="M278.9,389.7a38.9,38.9,0,0,1-1.7,4.1h0c-5.6,11.9-16.2,14.3-38.3,15.4a64.9,64.9,0,0,1-6.6,1.1,28.4,28.4,0,0,1-15.7.5l-2.2-.5c-14.1-4-12.4-16-9.8-30.9.7-4.1,1.5-8.5,2.1-12.9,0,0-1.3,44.4,21.3,35.1,16.1-6.7,19.7-13.8,20.4-17.3a4.9,4.9,0,0,0,.1-2.1s11.6,2.2,14.5-6.8a28.4,28.4,0,0,1,6.6.5h0c3.8.7,8.1,2.4,9.6,6.3C279.9,384.1,279.9,386.5,278.9,389.7Z"/><path class="cls-6" d="M222.2,376.8c18.1-6,25.2-1.1,26.2,7.5"/><path class="cls-6" d="M209.3,314.9s0,1.1-.1,3"/><path class="cls-6" d="M240.2,335.6a139.3,139.3,0,0,0-8.2,15.1"/><path class="cls-6" d="M295.6,394a5.7,5.7,0,0,1-1.3.8"/><path class="cls-6" d="M298.2,360.7a10.5,10.5,0,0,1,2.4.6l2.5,1.1"/><path class="cls-5" d="M326.5,392.3a89.7,89.7,0,0,1-12,1.2c7.1-1.4,15.9-14.2,17.8-18.1a23.5,23.5,0,0,0,1.7-8.9c13.4-2.5,13-10.7,13-11.3a7.1,7.1,0,0,1,1.4,1,7,7,0,0,1,2.9,4.9C353,371.6,338.4,390.1,326.5,392.3Z"/><path class="cls-5" d="M334,366.5a23.5,23.5,0,0,1-1.7,8.9c-1.9,3.9-10.7,16.7-17.8,18.1h-.2c-6,.4-12.6.5-18.7.5,12.6-7.8,17.3-14.9,16.9-20.6,20.7-6,16.4-18.9,16.4-18.9C332.8,357.6,334,362.3,334,366.5Z"/><path class="cls-5" d="M295.6,394c-9.7,0-17.8-.2-18.4-.2a38.9,38.9,0,0,0,1.7-4.1c1-3.2,1-5.6.3-7.5,26,5.3,23.9-19.8,23.9-19.8,5.4,2.5,9.1,6.3,9.4,11S308.2,386.2,295.6,394Z"/><path class="cls-6" d="M328.9,354.5c4.2-1.6,11.5-3.3,18.1.7h0"/><path class="cls-6" d="M328.9,354.5l-2.3-1.5a20.8,20.8,0,0,0-6.5-2,34.8,34.8,0,0,0-6.3-.3"/><path class="cls-6" d="M219.6,410.3l-3,.5"/><path class="cls-6" d="M178.3,410.3c4.2.8,11.9,3.5,17,3.2"/><path class="cls-5" d="M207.6,357.8c-.3,3-.6,6-.9,8.7-.6,4.4-1.4,8.8-2.1,12.9a31.9,31.9,0,0,0-11-3.3c-4.3-.5-9.2,0-13.3,3.3s-6.7,9.8-6.2,15.7a20.5,20.5,0,0,0,.5,2.4c-4.1-9.8-1.5-20.6.1-25.6,4.5-.1,9,.9,11.4-.3,5-2.5,3.7-20.1,3.6-20.9A64.8,64.8,0,0,0,207.6,357.8Z"/><path class="cls-5" d="M216.6,410.8a193.3,193.3,0,0,1-21.3,2.7h0a33.8,33.8,0,0,1-4.8-1.6c-14.6-18.8-2.7-31.3,3.1-35.8a31.9,31.9,0,0,1,11,3.3c-2.6,14.9-4.3,26.9,9.8,30.9Z"/><path class="cls-6" d="M174.6,397.5a18.5,18.5,0,0,0,6.3,8.9,33.1,33.1,0,0,0,9.6,5.5"/><path class="cls-5" d="M180.9,412.9a44.4,44.4,0,0,1-16-.5c-13.1-12.9-7.2-32.2-6.8-33.4h0a28.3,28.3,0,0,1,8.4-4.5c-1.7,1.5-3,3.8-3.6,7.4C160.3,397.4,168,410.3,180.9,412.9Z"/><path class="cls-6" d="M152.4,401.9a42.7,42.7,0,0,0,2.7,5.1s2.3,3.7,9.8,5.4"/><path class="cls-6" d="M252.9,205.1l-13.1,4.2"/><path class="cls-6" d="M201.5,217.8c-35.3,5.7-68.9,5.1-96.7,2.4h0a388.8,388.8,0,0,1-64.9-11.7l-6.4-1.8a341.7,341.7,0,0,1,21.8-40.1,272.3,272.3,0,0,1,34.4-43.8"/><path class="cls-5" d="M381.5,81c-1.7,4.8-3.7,9.7-5.8,14.6h0c-15.1,34.6-40.3,68.6-81.8,91.4a268.3,268.3,0,0,1-41,18.1c56.1-31.1,82.5-68.9,95-96.2a159.5,159.5,0,0,0,7.8-21.6,85.5,85.5,0,0,0,3-15.1c5.9,2,10.7,3.8,14.4,5.3h.1C378.5,79.6,381.5,81,381.5,81Z"/><path class="cls-6" d="M272.4,55.3a338.2,338.2,0,0,1,86.3,16.9"/><path class="cls-6" d="M235.8,55.6C203.4,57.9,169,66.5,136.2,86h-.1"/><path class="cls-6" d="M232.5,59.8S276.3.5,317.5.5c0,0,18.8,9,32.6,69"/><path class="cls-6" d="M317.5.5s-43.8,30.9-46.4,61.9"/><path class="cls-6" d="M178.3,168s49,38.3,92.8,17.9,46.4-57.5,46.4-57.5"/><path class="cls-6" d="M143.3,88.1C110.1,75.9,27.6,86.9,19.2,88c-.1,0-.1.2,0,.2,6.3,1,54.7,9.5,71.5,36"/><path class="cls-6" d="M19.2,88s.8,46.2,36.2,78.6"/><path class="cls-6" d="M.5,229.9s86.8-58.3,198.1-58.8"/><path class="cls-6" d="M40.4,260.2s85.5-63.8,176.1-83.2"/><path class="cls-6" d="M375.7,95.6C404.2,83.9,441.2,74.2,486,73.8"/><path class="cls-6" d="M347.9,108.9a216.6,216.6,0,0,0-30.4,19.6,126.4,126.4,0,0,0-10.3,8.6"/><path class="cls-6" d="M469.6,46.9c-34.3,2.2-68.5,15.8-96.4,30.6"/><path class="cls-6" d="M355.7,87.3a382.8,382.8,0,0,0-45.9,31.8"/><path class="cls-6" d="M271.1,152.6s2.9,23.3-3.7,34.8"/><path class="cls-6" d="M196.4,134.5c-7.9,5.6-9.5,13.5.4,15.3,19.3,3.6,48.3,7.4,69.8,2.9,35-7.3,43.4-37.9,40.6-41.4S240.8,102.9,196.4,134.5Z"/><ellipse class="cls-6" cx="211.8" cy="86.8" rx="2.6" ry="9" transform="translate(-9.6 28.6) rotate(-7.5)"/><ellipse class="cls-6" cx="235" cy="81.7" rx="2.6" ry="9" transform="translate(-8.7 31.6) rotate(-7.5)"/><path class="cls-6" d="M281.4,358.8h-.2"/><path class="cls-5" d="M186.1,371.6c-2.4,1.2-6.9.2-11.4.3a14.2,14.2,0,0,0-6.1,1.2,49.9,49.9,0,0,0-5.7-5.7c.2-5.8,2.2-24.4,19.6-22.2a37.9,37.9,0,0,0,7.2,5.5h0C189.8,351.5,191.1,369.1,186.1,371.6Z"/><path class="cls-6" d="M186.1,345.9a28.3,28.3,0,0,0-3.6-.7"/><path class="cls-6" d="M162.9,369.1a7.8,7.8,0,0,1,0-1.7"/><path class="cls-6" d="M247.9,219.6a65.6,65.6,0,0,1-8.7,5.1"/><path class="cls-6" d="M192.5,234a68.9,68.9,0,0,0,7.7.2"/><line class="cls-6" x1="279.2" y1="382.2" x2="279.1" y2="382.2"/><path class="cls-6" d="M347,355.2h0"/><path class="cls-6" d="M180.9,406.4a25.1,25.1,0,0,1-6.3-8.9"/><path class="cls-6" d="M175.8,369.1a23.5,23.5,0,0,0-1.1,2.8"/><path class="cls-6" d="M191.2,412.9a8.6,8.6,0,0,1-.7-1"/><path class="cls-6" d="M196.4,374.2a32.5,32.5,0,0,0-2.8,1.9"/><path class="cls-6" d="M281.2,358.9a112.2,112.2,0,0,1-9.5,6.1"/><path class="cls-4" d="M351,361.3l.3-.2c43.5-23.2,35.8-64.3,33.2-90s7.8-46.4,49-64.4S490.2,168,485,152.6s-38.6-31-97.9-2.6S351,255.7,353.6,299.5c2.2,38.2-21,50.9-27,53.5"/><path class="cls-4" d="M239.8,209.3c-.4,7.2-.8,18.7-.9,31,0,4.9,0,9.9.2,14.9.5,17,2.2,33,6.2,39.1,6.3,9.5,15.5,16.9,21.6,21.4h.1"/><path class="cls-4" d="M260.8,322.7a61.1,61.1,0,0,1,6.1-7h.1c9.4-9.3,28.7-23.1,50.5-8.5,16.4,10.9,8.9,28.4-3.7,43.5h0"/><path class="cls-4" d="M171.9,311.8c-8.1-.6-26.1,2.1-27.5,36.4-.1,3.5-.1,7.3.1,11.4"/><path class="cls-4" d="M132.2,400.6c-11.9.8-24.2-3-24.9-21.2-1.3-30.2,27.6-31.5,37.1-31.2"/><path class="cls-4" d="M168.6,373.1c-3-3.7-12.2-13.3-24.1-13.5a24.5,24.5,0,0,0-8.9,1.7c-9.3,3.8-12.5,13.1-11.5,22.4.7,6.3,3,13.2,8.1,16.9A13.7,13.7,0,0,0,138,403c4.8.8,9.6,0,14.4-1.1"/><path class="cls-4" d="M201.5,217.8a142.2,142.2,0,0,1-2.9,25.7,63.9,63.9,0,0,1-4.6,13.8l-1.9,3.5c-5.5,8.9-18.1,30.2-20.2,51-1.6,14.8,2.2,29.4,17.8,38.9h0a64.8,64.8,0,0,0,17.9,7.1"/><path class="cls-4" d="M198.6,243.5s23.6,4.6,40.3-3.2"/><path class="cls-4" d="M194,257.3s18.2,7.7,45.1-2.1"/><path class="cls-4" d="M209.3,314.9s0,31-2.6,51.6-10.3,38.6,7.7,43.8,30.9-5.2,33.5-18-2.6-23.2-25.7-15.5"/><path class="cls-4" d="M240.2,335.6s-18,28.3-10.3,33.5,12.9,2.5,12.9,2.5,18-7.7,20.6,5.2-5.6,30.8-31.2,33.5"/><path class="cls-4" d="M263,375.4s21-1.2,15.9,14.3-15.5,18.3-40,19.5"/><path class="cls-4" d="M269.6,375.9s16.6-19.7,31-14.6,19.5,18.1-6.3,33.5"/><path class="cls-4" d="M328.9,354.5c4.5-1.7,12.6-3.5,19.5,1.7a7,7,0,0,1,2.9,4.9c1.7,10.5-12.9,29-24.8,31.2a89.6,89.6,0,0,1-12.1,1.2h-.1c-6,.4-12.6.5-18.7.5-9.7,0-17.8-.2-18.4-.2h0"/><path class="cls-4" d="M298.2,360.7s3.9-12.3,21.9-9.7,14,20.5,12.2,24.4-10.8,16.8-18,18.1"/><path class="cls-4" d="M189.7,350.7s1.5,18.4-3.6,20.9-20.6-5.1-23.2,10.3,5.1,28.4,18,31,35.5-2.1,35.5-2.1"/><path class="cls-4" d="M204.6,379.4s-14.6-7.8-24.3,0c-4.7,3.7-6.7,9.8-6.2,15.7,1,9.8,12.7,16.3,21.2,18.4"/><path class="cls-4" d="M166.6,374.4S139.7,383,155.1,407c0,0,5.2,8.5,25.8,5.9"/><path class="cls-4" d="M381.5,81c-1.7,4.8-3.7,9.7-5.8,14.6h0c-15.1,34.6-40.3,68.6-81.8,91.4a273.6,273.6,0,0,1-54.1,22.3,303.4,303.4,0,0,1-38.3,8.5c-35.3,5.7-68.9,5.1-96.7,2.4h0a388.8,388.8,0,0,1-64.9-11.7l-6.4-1.8a341.7,341.7,0,0,1,21.8-40.1,272.3,272.3,0,0,1,34.4-43.8"/><path class="cls-4" d="M381.5,81s-3-1.4-8.3-3.5h-.1A335.6,335.6,0,0,0,272.4,55.3"/><path class="cls-4" d="M235.8,55.6C203.4,57.9,169,66.5,136.2,86h-.1"/><path class="cls-4" d="M232.5,59.8S276.3.5,317.5.5c0,0,18.8,9,32.6,69"/><path class="cls-4" d="M317.5.5s-43.8,30.9-46.4,61.9"/><path class="cls-4" d="M178.3,168s49,38.3,92.8,17.9,46.4-57.5,46.4-57.5"/><path class="cls-4" d="M143.3,88.1C110.1,75.9,27.6,86.9,19.2,88c-.1,0-.1.2,0,.2,6.3,1,54.7,9.5,71.5,36"/><path class="cls-4" d="M19.2,88s.8,46.2,36.2,78.6"/><path class="cls-4" d="M.5,229.9s86.8-58.3,198.1-58.8"/><path class="cls-4" d="M40.4,260.2s85.5-63.8,176.1-83.2"/><path class="cls-4" d="M307.2,137.1S371,74.9,486,73.8"/><path class="cls-4" d="M309.8,119.1S389.7,52,469.6,46.9"/><path class="cls-4" d="M271.1,152.6s2.9,23.3-3.7,34.8"/><path class="cls-4" d="M196.4,134.5c-7.9,5.6-9.5,13.5.4,15.3,19.3,3.6,48.3,7.4,69.8,2.9,35-7.3,43.4-37.9,40.6-41.4S240.8,102.9,196.4,134.5Z"/><ellipse class="cls-4" cx="211.8" cy="86.8" rx="2.6" ry="9" transform="translate(-9.6 28.6) rotate(-7.5)"/><ellipse class="cls-4" cx="235" cy="81.7" rx="2.6" ry="9" transform="translate(-8.7 31.6) rotate(-7.5)"/></g></g></svg>