<svg xmlns="http://www.w3.org/2000/svg" viewBox="0 0 470 344.5"><defs><style>.cls-1{fill:#fece6f;}.cls-2{fill:#c5280e;}.cls-3{fill:#19c4c8;}.cls-4,.cls-5{fill:none;}.cls-4{stroke:#000;stroke-linecap:round;stroke-miterlimit:10;}.cls-6{fill:#e79d29;}.cls-7{fill:#fff;}</style></defs><g id="Layer_2" data-name="Layer 2"><g id="stroke"><path class="cls-1" d="M455.5,206.8c9.1,11.2,14.1,26.5,14,40.8-.1,16-9.6,40.2-30,32.7-8.1-2.9-14.4-10.3-18.9-17.5-5.7-9-7.4-25.5-19.9-27.4-9.9-1.5-22.3,5.2-28.2,12.9-17.1,22.3-38.5,60.4-67.7,63.2v-2a16.3,16.3,0,0,0-2.2-7.7c.1-3.4.2-7.4.3-11.6,0,0,20.6-6.9,32.9-33.1,10.4-22.4,13.3-51.8,33.1-68.6C394.5,166.9,436.9,183.6,455.5,206.8Z"/><path class="cls-1" d="M310.2,87.4a34.9,34.9,0,0,1,2,4.4,96,96,0,0,1-5.4,15.4,458.5,458.5,0,0,0-49.7,15.2l-1.8-1.8S280.8,103.3,310.2,87.4Z"/><path class="cls-1" d="M304.8,309.5v2c-.6,15.2-21.4,16.7-22.4,16.7l2.7-1.2c8.7-5.2,10.5-21,3.4-29.3a16.4,16.4,0,0,0-2.5-2.1c.6-.1,11.7-2.2,16.6,6.2A16.3,16.3,0,0,1,304.8,309.5Z"/><path class="cls-1" d="M214.6,309.7a42,42,0,0,1-16.2-21.1c-4.2-12.3-3.3-25.7-1-38.3.4-2.3.9-4.5,1.4-6.7l1.8-8.2a139.3,139.3,0,0,0,3.3-24.9c.1-2.6,0-5.1,0-7.7,0,0,16.3,1.3,27.8-2.8-1.6,19.7.5,45.1,18.4,57.1,0,0,10.5,6.9,21,3.5,8.6-2.9,25.1-9,31.8.4,2.4,3.6,2.1,7.8,1.4,11.8a172.6,172.6,0,0,0-1.4,17.4c-.1,4.2-.2,8.2-.3,11.6-4.9-8.4-16-6.3-16.6-6.2h0c-7.2-4.2-17.2,3.1-17.2,3.1h0c-7.5-1.4-16.1,4.3-16.1,4.3-7.4-5.5-18.8,1.2-18.8,1.2,5.9,4.8,14.8,14.3,11.6,26.1-1.8,7-5.4,10.3-9.4,11.8h0c-5.9,2.2-12.9.1-16.5-.6s-6.9-5.1-6.8-12.7a46.2,46.2,0,0,1,.6-7C213.7,319.4,214.1,315.2,214.6,309.7Z"/><path class="cls-1" d="M163.8,130.8a346.7,346.7,0,0,0-55.5,9.9,15.8,15.8,0,0,0-6.5-2.7c-4.9-.8-7.6,2.1-9.1,6.1a126.4,126.4,0,0,1-15.8-17.6L70,117.1a131.4,131.4,0,0,1,9.6-16c8.5-12.4,22.7-29.5,42.5-41.5C112.2,42,82.2,15.7,82.2,15.7s41.1-3.2,72.2,25.1c0,0,35.9-15.3,81.6-7.1C246,24.9,269.5,6.2,294.6.8c-4.2,4.4-23.9,25.6-34.5,47,8.6,3.6,25,11.4,37.5,23.2a57.1,57.1,0,0,1,12.6,16.4c-29.4,15.9-54.9,33.2-54.9,33.2l-4.4-.9,2.3-3.8a8.9,8.9,0,0,0-5.7-13.2,55,55,0,0,0-28.6.7,79.9,79.9,0,0,0-18,7.5,9.9,9.9,0,0,0-.5,17.2,61.8,61.8,0,0,0,31.1,9.9h.2s.3,29.6-11.6,37.6h0c-2.4.5-4.8.9-7.3,1.2-26.2-5.2-38.8-17.6-44.6-29.9A48.1,48.1,0,0,1,163.8,130.8Z"/><path class="cls-2" d="M295.5.6c1,5.4,8,44.6,2.1,70.4-12.5-11.8-28.9-19.6-37.5-23.2,10.6-21.4,30.3-42.6,34.5-47Z"/><path class="cls-1" d="M288.5,297.7c7.1,8.3,5.3,24.1-3.4,29.3l-2.7,1.2h0a32.1,32.1,0,0,1-13.6,2.7c8.8-5.8,12.7-17.5,7.5-26.6a10.8,10.8,0,0,0-7.5-5.6h0s10-7.3,17.2-3.1h0A16.4,16.4,0,0,1,288.5,297.7Z"/><path class="cls-1" d="M231.3,173h0c-3.6,1-7.3,1.9-11.2,2.6,11.9-8,11.6-37.6,11.6-37.6h0a8.5,8.5,0,0,0,5.1-1.7c5.4-4.4,10.4-10.9,14.1-16.6l4.4.9,1.8,1.8a458.5,458.5,0,0,1,49.7-15.2c-8.3,19-28,50.6-70.8,64.4Z"/><path class="cls-1" d="M276.3,304.3c5.2,9.1,1.3,20.8-7.5,26.6h0a20.9,20.9,0,0,1-10.3,3.6c3.9-6.9,2.7-19.7-3-28.5a10.2,10.2,0,0,0-2.8-3s8.6-5.7,16.1-4.3A10.8,10.8,0,0,1,276.3,304.3Z"/><path class="cls-1" d="M255.5,306c5.7,8.8,6.9,21.6,3,28.5a9.6,9.6,0,0,1-3,3.3c-7,4.8-18.8,4.3-19.4,4.3,4-1.5,7.6-4.8,9.4-11.8,3.2-11.8-5.7-21.3-11.6-26.1,0,0,11.4-6.7,18.8-1.2A10.2,10.2,0,0,1,255.5,306Z"/><path d="M247.5,102.7a8.9,8.9,0,0,1,5.7,13.2l-2.3,3.8c-3.7,5.7-8.7,12.2-14.1,16.6a8.5,8.5,0,0,1-5.1,1.7h-.2a61.8,61.8,0,0,1-31.1-9.9,9.9,9.9,0,0,1,.5-17.2,79.9,79.9,0,0,1,18-7.5A55,55,0,0,1,247.5,102.7Z"/><path class="cls-1" d="M220.1,175.6h0c3.9-.7,7.6-1.6,11.2-2.6h0l4.7-1.4c-.2,1.2-1.9,8.6-3.2,18-13.8,6-29.5,1.9-29.5,1.9-.4-4.6-.9-9.1-1.4-13.6,3.7-.2,7.4-.6,10.9-1.1S217.7,176.1,220.1,175.6Z"/><path class="cls-3" d="M232.8,189.6c-.5,3.3-.9,6.8-1.1,10.4-11.5,4.1-27.8,2.8-27.8,2.8-.1-3.8-.3-7.6-.6-11.3C203.3,191.5,219,195.6,232.8,189.6Z"/><path class="cls-1" d="M174.7,302c-.4-.4-6.9-7.2-15-9.7.6-3,1.5-7.5,2.9-14.3,5.2-24.1,34-27.6,34.8-27.7-2.3,12.6-3.2,26,1,38.3a42,42,0,0,0,16.2,21.1c-.5,5.5-.9,9.7-1.2,12.1a46.2,46.2,0,0,0-.6,7h-1.2s-28,7-40.4,5.5c-4-.5-7.1-1.8-9.3-4-4.5-4.3-5.2-11.8-3-22C160.7,299.7,168.4,300.1,174.7,302Z"/><path class="cls-1" d="M212.8,176.8c-3.5.5-7.2.9-10.9,1.1a201.1,201.1,0,0,1-42.3-1.8,124.2,124.2,0,0,1-39.2-12.6c14.3-7,30.5-13.2,47.8-16.6C174,159.2,186.6,171.6,212.8,176.8Z"/><path class="cls-1" d="M203.9,210.5a139.3,139.3,0,0,1-3.3,24.9C121.4,240.1,87.4,194,87.4,194a24,24,0,0,0,5.8-6.9S142,223.4,203.9,210.5Z"/><path class="cls-1" d="M174.7,302c-6.3-1.9-14-2.3-15.8,6.3-2.2,10.2-1.5,17.7,3,22-21.7-.1-34.2-17.3-20.2-33,5.7-6.5,12.2-6.8,18-5C167.8,294.8,174.3,301.6,174.7,302Z"/><path class="cls-1" d="M163.8,130.8a48.1,48.1,0,0,0,4.4,16.1c-17.3,3.4-33.5,9.6-47.8,16.6h-.3c.7-8.7-4.9-18.1-11.8-22.7A346.7,346.7,0,0,1,163.8,130.8Z"/><path class="cls-1" d="M87.9,182.7c-6.1,4.2-11.1,8.1-15,11.2a32.9,32.9,0,0,1,1,5.1c.4,4.3-.5,9.1-5.7,10.8a26.7,26.7,0,0,1-14.9.8c-3.1,9.2-9.6,19-23.6,15-22.6-6.5-9.4-27.4-4.5-32.9-.7.2-18.3,2.7-21.4-19.5s25.1-28.4,25.1-28.4c-7.9-11.9-6.2-32.9,7.8-38.1s25.1-.5,29.2,10.5l.6,1.7c3.2,11.4,5.2,28.7,6.7,33.2a5.9,5.9,0,0,0,.4.8l.5-.3c3.2,2,6.5,4.3,8.1,6.6,3.5,5.2,8.7,3.4,8.7-.1,0-1.9-.2-8.3,1.3-13.6l1.5-.5c4.5-1.4,9.3-2.9,14.6-4.3,6.9,4.6,12.5,14,11.8,22.7a.8.8,0,0,1-.1.4A265,265,0,0,0,87.9,182.7Z"/><path class="cls-1" d="M120,163.8a17.2,17.2,0,0,1-2.8,7.6c-5.6,7.7-14.5,13.6-22.8,13.1a14.1,14.1,0,0,1-6.5-1.8A265,265,0,0,1,120,163.8Z"/><path class="cls-1" d="M101.8,138a15.8,15.8,0,0,1,6.5,2.7c-5.3,1.4-10.1,2.9-14.6,4.3l-1.5.5c.2-.4.3-.9.5-1.4C94.2,140.1,96.9,137.2,101.8,138Z"/><path class="cls-2" d="M82.2,15.7s30,26.3,39.9,43.9c-19.8,12-34,29.1-42.5,41.5C75.2,88.5,82.2,15.7,82.2,15.7Z"/><path class="cls-1" d="M94.4,184.5h0a22.5,22.5,0,0,1-1.2,2.6,24,24,0,0,1-5.8,6.9,21.9,21.9,0,0,1-13.5,5,32.9,32.9,0,0,0-1-5.1c3.9-3.1,8.9-7,15-11.2A14.1,14.1,0,0,0,94.4,184.5Z"/><path class="cls-4" d="M302.6,301.8c.1-3.4.2-7.4.3-11.6a172.6,172.6,0,0,1,1.4-17.4c.7-4,1-8.2-1.4-11.8-6.7-9.4-23.2-3.3-31.8-.4-10.5,3.4-21-3.5-21-3.5-17.9-12-20-37.4-18.4-57.1.2-3.6.6-7.1,1.1-10.4,1.3-9.4,3-16.8,3.2-18v-.2"/><path class="cls-4" d="M302.9,290.2s20.6-6.9,32.9-33.1c10.4-22.4,13.3-51.8,33.1-68.6,25.6-21.6,68-4.9,86.6,18.3,9.1,11.2,14.1,26.5,14,40.8-.1,16-9.6,40.2-30,32.7-8.1-2.9-14.4-10.3-18.9-17.5-5.7-9-7.4-25.5-19.9-27.4-9.9-1.5-22.3,5.2-28.2,12.9-17.1,22.3-38.5,60.4-67.7,63.2"/><path class="cls-4" d="M201.9,177.9c.5,4.5,1,9,1.4,13.6s.5,7.5.6,11.3.1,5.1,0,7.7a139.3,139.3,0,0,1-3.3,24.9l-1.8,8.2c-.5,2.2-1,4.4-1.4,6.7-2.3,12.6-3.2,26,1,38.3a42,42,0,0,0,16.2,21.1"/><path class="cls-4" d="M203.9,202.8s16.3,1.3,27.8-2.8"/><path class="cls-4" d="M203.3,191.5s15.7,4.1,29.5-1.9h0"/><path class="cls-4" d="M255.3,120.6s25.5-17.3,54.9-33.2c20-10.8,41.8-20.9,58.8-24.5"/><path class="cls-4" d="M257.1,122.4a458.5,458.5,0,0,1,49.7-15.2c17.4-4.2,36-7.2,50-5.8"/><path class="cls-4" d="M159.1,45.4c-1.5-1.6-3-3.1-4.7-4.6C123.3,12.5,82.2,15.7,82.2,15.7s30,26.3,39.9,43.9l1.6,3.3"/><path class="cls-4" d="M230.8,38.4l5.2-4.7C246,24.9,269.5,6.2,294.6.8l.9-.2c1,5.4,8,44.6,2.1,70.4"/><path class="cls-4" d="M257.1,54.4q1.3-3.3,3-6.6c10.6-21.4,30.3-42.6,34.5-47"/><path class="cls-4" d="M92.7,144.1a126.4,126.4,0,0,1-15.8-17.6L70,117.1a131.4,131.4,0,0,1,9.6-16c8.5-12.4,22.7-29.5,42.5-41.5l.3-.2"/><path class="cls-4" d="M220.1,175.6c-2.4.5-4.8.9-7.3,1.2s-7.2.9-10.9,1.1a201.1,201.1,0,0,1-42.3-1.8,124.2,124.2,0,0,1-39.2-12.6h-.3"/><path class="cls-4" d="M231.3,173c-3.6,1-7.3,1.9-11.2,2.6"/><path class="cls-4" d="M260.1,47.8c8.6,3.6,25,11.4,37.5,23.2a57.1,57.1,0,0,1,12.6,16.4,34.9,34.9,0,0,1,2,4.4,96,96,0,0,1-5.4,15.4c-8.3,19-28,50.6-70.8,64.4l-4.7,1.4"/><path class="cls-4" d="M82.2,15.7s-7,72.8-2.6,85.4"/><path class="cls-4" d="M220.9,78.3s16.9-11.9,27.4-6.6"/><path class="cls-4" d="M174.9,83.9s16.6-11.2,32.8-5.6"/><path class="cls-4" d="M159.7,292.3c.6-3,1.5-7.5,2.9-14.3,5.2-24.1,34-27.6,34.8-27.7h0"/><path class="cls-4" d="M174.7,302c-6.3-1.9-14-2.3-15.8,6.3-2.2,10.2-1.5,17.7,3,22,2.2,2.2,5.3,3.5,9.3,4,12.4,1.5,40.4-5.5,40.4-5.5"/><path class="cls-4" d="M183.6,306a45.1,45.1,0,0,0-8.9-3.9"/><path class="cls-4" d="M174.7,302.1h0c-.4-.4-6.9-7.2-15-9.7-5.8-1.8-12.3-1.5-18,5-14,15.7-1.5,32.9,20.2,33"/><path class="cls-4" d="M236.1,342.1c4-1.5,7.6-4.8,9.4-11.8,3.2-11.8-5.7-21.3-11.6-26.1l-2.4-1.8a20,20,0,0,0-2.4-1.5"/><path class="cls-4" d="M219.6,242.4s-2.9,44.1-5,67.3c-.5,5.5-.9,9.7-1.2,12.1a46.2,46.2,0,0,0-.6,7c-.1,7.6,2.2,11.6,6.8,12.7s10.6,2.8,16.5.6"/><line class="cls-4" x1="239.6" y1="258.8" x2="231.5" y2="302.4"/><path class="cls-4" d="M233.9,304.2s11.4-6.7,18.8-1.2a10.2,10.2,0,0,1,2.8,3c5.7,8.8,6.9,21.6,3,28.5a9.6,9.6,0,0,1-3,3.3c-7,4.8-18.8,4.3-19.4,4.3h0"/><path class="cls-4" d="M268.8,330.9a20.9,20.9,0,0,1-10.3,3.6"/><path class="cls-4" d="M252.7,303s8.6-5.7,16.1-4.3a10.8,10.8,0,0,1,7.5,5.6c5.2,9.1,1.3,20.8-7.5,26.6"/><path class="cls-4" d="M282.4,328.2a32.1,32.1,0,0,1-13.6,2.7h0"/><path class="cls-4" d="M286,295.6a16.4,16.4,0,0,1,2.5,2.1c7.1,8.3,5.3,24.1-3.4,29.3l-2.7,1.2"/><path class="cls-4" d="M268.8,298.7s10-7.3,17.2-3.1"/><path class="cls-4" d="M286,295.6h0c.6-.1,11.7-2.2,16.6,6.2a16.3,16.3,0,0,1,2.2,7.7v2c-.6,15.2-21.4,16.7-22.4,16.7h0"/><path class="cls-4" d="M56,162.6s5.5-4.2,17.6-9.7l.5-.3c5-2.2,11-4.6,18.1-7.1l1.5-.5c4.5-1.4,9.3-2.9,14.6-4.3a346.7,346.7,0,0,1,55.5-9.9c5.8-.6,11.8-1,18.1-1.4"/><path class="cls-4" d="M64,201.5s3.1-3,8.9-7.6c3.9-3.1,8.9-7,15-11.2A265,265,0,0,1,120,163.8l.4-.3c14.3-7,30.5-13.2,47.8-16.6,4.5-.9,9-1.6,13.7-2.1"/><path class="cls-4" d="M164.4,115.4a48.3,48.3,0,0,0-.6,15.4,48.1,48.1,0,0,0,4.4,16.1c5.8,12.3,18.4,24.7,44.6,29.9"/><path class="cls-4" d="M262.3,124.1s7.8,27.8-31,48.9h0"/><path class="cls-4" d="M231.7,138s.3,29.6-11.6,37.6h0"/><path class="cls-4" d="M250.9,119.7l2.3-3.8a8.9,8.9,0,0,0-5.7-13.2,55,55,0,0,0-28.6.7,79.9,79.9,0,0,0-18,7.5,9.9,9.9,0,0,0-.5,17.2,61.8,61.8,0,0,0,31.1,9.9h.2a8.5,8.5,0,0,0,5.1-1.7C242.2,131.9,247.2,125.4,250.9,119.7Z"/><path class="cls-4" d="M54.2,143.4s-17.4,13.4-25.3,1.4-6.2-32.9,7.8-38.1,25.1-.5,29.2,10.5l.6,1.7c3.2,11.4,5.2,28.7,6.7,33.2a5.9,5.9,0,0,0,.4.8"/><path class="cls-4" d="M66.5,148.6a66.2,66.2,0,0,1,6.7,3.5l.9.5c3.2,2,6.5,4.3,8.1,6.6,3.5,5.2,8.7,3.4,8.7-.1,0-1.9-.2-8.3,1.3-13.6.2-.4.3-.9.5-1.4,1.5-4,4.2-6.9,9.1-6.1a15.8,15.8,0,0,1,6.5,2.7c6.9,4.6,12.5,14,11.8,22.7a.8.8,0,0,1-.1.4,17.2,17.2,0,0,1-2.8,7.6c-5.6,7.7-14.5,13.6-22.8,13.1a14.1,14.1,0,0,1-6.5-1.8,17.6,17.6,0,0,1-6.4-5.9"/><path class="cls-4" d="M94.4,184.5a22.5,22.5,0,0,1-1.2,2.6,24,24,0,0,1-5.8,6.9,21.9,21.9,0,0,1-13.5,5h-.3"/><path class="cls-4" d="M53.3,210.6a26.7,26.7,0,0,0,14.9-.8c5.2-1.7,6.1-6.5,5.7-10.8a32.9,32.9,0,0,0-1-5.1,27.6,27.6,0,0,0-1.2-3.3"/><path class="cls-4" d="M56,197a60.8,60.8,0,0,1-2.7,13.6c-3.1,9.2-9.6,19-23.6,15-22.6-6.5-9.4-27.4-4.5-32.9l1-.9a29.7,29.7,0,0,1,8.8-4.7"/><path class="cls-4" d="M28.9,144.8S.6,150.5,3.8,173.2s20.7,19.7,21.4,19.5h0"/><path class="cls-4" d="M93.2,187.1s48.8,36.3,110.7,23.4"/><path class="cls-4" d="M87.4,194s34,46.1,113.2,41.4"/><path class="cls-4" d="M154.4,40.8s35.9-15.3,81.6-7.1"/><path class="cls-5" d="M236.1,171.4v.2"/><path class="cls-6" d="M304.3,272.8a172.6,172.6,0,0,0-1.4,17.4c-.1,4.2-.2,8.2-.3,11.6a12.5,12.5,0,0,0-7.5-5.7,23,23,0,0,0-9.1-.5h0c-3.7-2-8.2-1.2-11.8.1a42.7,42.7,0,0,0-6,2.9,18.5,18.5,0,0,0-8.1.9h0a30.4,30.4,0,0,0-7.4,3.5,11.8,11.8,0,0,0-8.3-2.1,27.9,27.9,0,0,0-10.5,3.3l-2.4-1.8,3.3-17.9c4.5,5.4,14.3,11,24,11,12.3,0,31.5-12.2,37.7-24.2,3.5-6.7-.4-12-4.6-15.3,4.4.1,8.4,1.5,11,5S305,268.8,304.3,272.8Z"/><path class="cls-6" d="M236,171.6c-.2,1.2-1.9,8.3-3.2,17.6-16-1.6-26.3-7.4-30.8-10.6,0-.2-.1-.4-.1-.7,3.7-.2,7.4-.6,10.9-1.1s4.9-.7,7.3-1.2h0c3.9-.7,7.6-1.6,11.2-2.6h0Z"/><path class="cls-5" d="M232.8,189.2h0v.4c-.5,3.3-.9,6.8-1.1,10.4-1.6,19.7.5,45.1,18.4,57.1,0,0,10.5,6.9,21,3.5,5.3-1.8,13.6-4.8,20.8-4.6"/><path class="cls-6" d="M469.5,247.6c-.1,16-9.6,40.2-30,32.7-8.1-2.9-14.4-10.3-18.9-17.5-5.7-9-7.4-25.5-19.9-27.4-9.9-1.5-22.3,5.2-28.2,12.9-17.1,22.3-38.5,60.4-67.7,63.2v-2a1.3,1.3,0,0,0-.1-.6c6.8-2.1,27.9-10.6,42.4-35.2,8.9-15.1,16.5-32.4,29.1-44.9,6.6-6.5,16.1-9.9,25.1-5.9,5.1,2.4,9.4,6.5,13.3,10.5,10.3,10.8,26.1,53.4,50.9,21.4A31.6,31.6,0,0,0,469.5,247.6Z"/><path class="cls-5" d="M302.9,290.2s20.6-6.9,32.9-33.1c10.4-22.4,13.3-51.8,33.1-68.6,25.6-21.6,68-4.9,86.6,18.3,9.1,11.2,14.1,26.5,14,40.8"/><path class="cls-5" d="M202.7,224a120.9,120.9,0,0,0,1.2-13.5c.1-2.6,0-5.1,0-7.7s-.3-7.6-.6-11.3-.8-8.6-1.3-12.9"/><path class="cls-5" d="M200.6,235.4l-1.8,8.2"/><path class="cls-5" d="M203.9,202.8s16.3,1.3,27.8-2.8"/><path class="cls-5" d="M203.3,191.5s15.7,4.1,29.5-1.9"/><path class="cls-5" d="M369,62.9c-17,3.6-38.8,13.7-58.8,24.5"/><path class="cls-5" d="M277.8,106.2c-13.5,8.3-22.5,14.4-22.5,14.4"/><path class="cls-5" d="M306.8,107.2c17.4-4.2,36-7.2,50-5.8"/><path class="cls-5" d="M275.4,116.1c-11,3.5-18.3,6.3-18.3,6.3"/><path class="cls-5" d="M159.1,45.4C127.7,12.2,82.2,15.7,82.2,15.7s34,29.7,41.5,47.2"/><path class="cls-5" d="M230.8,38.4l5.2-4.7C246,24.9,269.5,6.2,294.6.8l.9-.2c1,5.4,8,44.6,2.1,70.4"/><path class="cls-5" d="M257.1,54.4q1.3-3.3,3-6.6c10.6-21.4,30.3-42.6,34.5-47"/><path class="cls-5" d="M92.7,144.1a126.4,126.4,0,0,1-15.8-17.6L70,117.1a131.4,131.4,0,0,1,9.6-16c8.5-12.4,22.7-29.5,42.5-41.5l.3-.2"/><path class="cls-6" d="M257.1,150.1h0c-4.5,7.4-12.4,15.5-25.8,22.8h0c-3.6,1-7.3,1.9-11.2,2.6,4-2.7,6.6-7.9,8.4-13.5,19-10.2,30.3-28,34.3-35C263.3,131.5,263.1,140.3,257.1,150.1Z"/><path class="cls-6" d="M228.5,162.1c-1.8,5.6-4.4,10.8-8.4,13.5h0c-2.4.5-4.8.9-7.3,1.2a84.8,84.8,0,0,1-15.8-4.6,56.7,56.7,0,0,1-7-3.2A62.8,62.8,0,0,0,228.5,162.1Z"/><path class="cls-6" d="M212.8,176.8c-3.5.5-7.2.9-10.9,1.1h-.8a200.5,200.5,0,0,1-41.5-1.9,124.2,124.2,0,0,1-39.2-12.6l4.6-2.1c10.9,7.2,33.3,16.5,72,10.8A84.8,84.8,0,0,0,212.8,176.8Z"/><path class="cls-5" d="M120.4,163.5h-.3"/><path class="cls-6" d="M312.2,91.8a96,96,0,0,1-5.4,15.4c-8.3,19-28,50.6-70.7,64.4H236l-4.7,1.4c13.4-7.3,21.3-15.4,25.8-22.8h0c8.8-8.2,14.5-20.7,18.3-34h0q1.4-4.9,2.4-9.9c4.1-19.2,4.6-38.2,4.6-46.9A97.9,97.9,0,0,1,297.6,71a57.1,57.1,0,0,1,12.6,16.4A34.9,34.9,0,0,1,312.2,91.8Z"/><path class="cls-5" d="M260.1,47.8a150.1,150.1,0,0,1,22.3,11.5"/><path class="cls-5" d="M82.2,15.7s-7,72.8-2.6,85.4"/><path class="cls-5" d="M220.9,78.3s16.9-11.9,27.4-6.6"/><path class="cls-5" d="M174.9,83.9s16.6-11.2,32.8-5.6"/><path class="cls-5" d="M197.4,250.3h0"/><path class="cls-5" d="M159.7,292.3c.6-3,1.5-7.5,2.9-14.3,3.2-14.8,15.4-21.9,24.5-25.1"/><path class="cls-5" d="M214.2,328.8l-1.4.3"/><line class="cls-5" x1="216.5" y1="315.8" x2="214.1" y2="315.1"/><path class="cls-5" d="M195.4,312.1l-7.7-1.9-4.1-4.2a45.1,45.1,0,0,0-8.9-3.9h0"/><path class="cls-6" d="M158.9,308.3c-2.2,10.2-1.4,17.7,3,22a35.1,35.1,0,0,1-9.4-1.2c-5.2-21.8,7.6-31.3,13-34.2a46.1,46.1,0,0,1,9.2,7.1c-4.9-1.5-10.7-2.1-13.8,1.8A10.4,10.4,0,0,0,158.9,308.3Z"/><path class="cls-5" d="M152.5,329.1c-15.6-4.2-22.7-18.5-10.8-31.8,5.7-6.5,12.2-6.8,18-5a21.8,21.8,0,0,1,5.8,2.6"/><path class="cls-5" d="M174.7,302.1h0"/><path class="cls-7" d="M219.5,245c-.7,9.8-3.1,44.9-4.9,64.7a42,42,0,0,1-16.2-21.1c-4.2-12.3-3.3-25.7-1-38.3.4-2.3.9-4.5,1.4-6.7C198.8,243.6,209.8,224.3,219.5,245Z"/><path class="cls-6" d="M213.4,321.8a51,51,0,0,0-.6,7.3c-6.1,1.4-29.8,6.5-41.1,5.2-4.2-.5-7.5-1.8-9.8-4-4.4-4.3-5.2-11.8-3-22a10.4,10.4,0,0,1,2-4.5s2,23.9,23.8,22.7A133.9,133.9,0,0,0,213.4,321.8Z"/><path class="cls-6" d="M214.6,309.7c-.2,2-.3,3.8-.5,5.4L210,314l-3.6-1-9-.5-2-.4c-20.1-18.5-12.3-48-8.3-59.2a49.5,49.5,0,0,1,10.3-2.6c-2.3,12.6-3.2,26,1,38.3A42,42,0,0,0,214.6,309.7Z"/><path class="cls-5" d="M213.4,321.8h0c.2-1.5.4-3.8.7-6.7"/><path class="cls-6" d="M245.5,330.3c-1.8,7-5.4,10.3-9.4,11.8h0a17.3,17.3,0,0,1-7.1,1c21.6-7.9,8.3-31.8,2.5-40.7h0l2.4,1.8C239.8,309,248.7,318.5,245.5,330.3Z"/><path class="cls-5" d="M212.8,329.1c-.1,7.4,2.2,11.4,6.8,12.4a66.7,66.7,0,0,0,9.4,1.6"/><path class="cls-5" d="M231.5,302.4l-1.2-.8-1.2-.7"/><path class="cls-5" d="M219.6,242.4s0,.9-.1,2.6"/><path class="cls-6" d="M258.5,334.5a9.6,9.6,0,0,1-3,3.3c-3.7,2.6-8.8,3.6-12.8,4.1,7.1-4.1,12.6-11.1,12.6-23.6,0-10-6.2-15-10.9-17.4a11.8,11.8,0,0,1,8.3,2.1,10.2,10.2,0,0,1,2.8,3C261.2,314.8,262.4,327.6,258.5,334.5Z"/><path class="cls-5" d="M236.1,342.1a62.5,62.5,0,0,0,6.6-.2"/><path class="cls-6" d="M268.8,330.9h0a20.7,20.7,0,0,1-8.1,3.3c5.2-4.4,10.4-10.4,11.8-17.7,2.2-10.8-6.6-15.2-12.4-17a18.5,18.5,0,0,1,8.1-.9,10.5,10.5,0,0,1,8.1,5.7C281.5,313.4,277.6,325.1,268.8,330.9Z"/><path class="cls-5" d="M260.7,334.2l-2.2.3"/><path class="cls-6" d="M285.1,327l-2.7,1.2h0a35.6,35.6,0,0,1-8.6,2.5c4-2.1,9.8-6.7,13-16.8,4.1-13.2-7.7-17.2-12.6-18.2,3.6-1.3,8.1-2.1,11.8-.1a12.1,12.1,0,0,1,2.5,2.1C295.6,306,293.8,321.8,285.1,327Z"/><path class="cls-5" d="M268.2,298.6l-.6.4"/><path class="cls-5" d="M268.8,330.9a27.5,27.5,0,0,0,5-.2"/><path class="cls-6" d="M304.8,311.5c-.3,7-4.8,11.1-9.7,13.5,9.3-14.8,4.4-24.2,0-28.9a12.5,12.5,0,0,1,7.5,5.7,15.7,15.7,0,0,1,2.1,7.1,1.3,1.3,0,0,1,.1.6Z"/><path class="cls-5" d="M282.4,328.2a36.1,36.1,0,0,0,12.7-3.2h0"/><path class="cls-5" d="M286,295.6h-.9"/><path class="cls-5" d="M181.9,129.4c-6.3.4-12.3.8-18.1,1.4a346.7,346.7,0,0,0-55.5,9.9"/><path class="cls-5" d="M106.9,141.1c-4.7,1.2-9.1,2.6-13.2,3.9l-1.5.5c-7.1,2.5-13.1,4.9-18.1,7.1"/><path class="cls-5" d="M56,162.6a80.8,80.8,0,0,1,12.8-7.4"/><path class="cls-5" d="M120.4,163.5l-.4.3"/><path class="cls-5" d="M125,161.4a192.4,192.4,0,0,1,43.2-14.5c4.5-.9,9-1.6,13.7-2.1"/><path class="cls-5" d="M90.3,181.1c4.8-3.2,10.2-6.7,16.1-10.1"/><path class="cls-5" d="M64,201.5s2.4-2.3,7-6l1.9-1.6"/><path class="cls-5" d="M190,169h0c-11.4-6.1-18-14.1-21.8-22.1a48.1,48.1,0,0,1-4.4-16.1,48.3,48.3,0,0,1,.6-15.4"/><path class="cls-5" d="M262.3,124.1a20.9,20.9,0,0,1,.5,3h0"/><path class="cls-5" d="M220.1,175.6h0"/><path class="cls-5" d="M231.7,138s.1,13-3.2,24.1"/><path class="cls-5" d="M218.9,103.4a79.9,79.9,0,0,0-18,7.5,9.9,9.9,0,0,0-.5,17.2,61.8,61.8,0,0,0,31.1,9.9,8.2,8.2,0,0,0,5.3-1.7c6.7-5.4,12.6-13.9,16.4-20.4a8.9,8.9,0,0,0-5.7-13.2A55,55,0,0,0,218.9,103.4Z"/><path class="cls-5" d="M24.3,125.6c.7-8.4,4.7-16.1,12.4-18.9,12.1-4.6,22.8-1.3,27.8,7.5"/><path class="cls-5" d="M84,161.2c3.3,2.6,6.9.8,6.9-2.1s-.2-8.3,1.3-13.6c.2-.4.3-.9.5-1.4,1.5-4,4.2-6.9,9.1-6.1a13.8,13.8,0,0,1,4.7,1.6l1.8,1.1"/><path class="cls-5" d="M86,181.6a20.9,20.9,0,0,1-4.5-4.8"/><path class="cls-5" d="M74.1,152.6l-.9-.5a66.2,66.2,0,0,0-6.7-3.5"/><path class="cls-5" d="M94,184.5a23,23,0,0,0,.4-2.6"/><path class="cls-5" d="M73.9,199h-.3"/><path class="cls-6" d="M68.2,209.8a26.7,26.7,0,0,1-14.9.8,62.7,62.7,0,0,0,2.3-9.7c1.3-1.8,2.5-3.4,3.4-4.9a22.6,22.6,0,0,0,12-.5l2.1-.9a43.8,43.8,0,0,1,.8,4.4C74.3,203.3,73.4,208.1,68.2,209.8Z"/><path class="cls-5" d="M72.6,192.9c-.5-1.4-.9-2.3-.9-2.3"/><path class="cls-6" d="M55.6,200.9a62.7,62.7,0,0,1-2.3,9.7c-3.1,9.2-9.6,19-23.6,15-10.4-3-13.2-9-12.8-15.2,7.3,4.1,20.6,8.8,32.1-2.3Q52.9,204.2,55.6,200.9Z"/><path class="cls-5" d="M29.6,189.5a41.8,41.8,0,0,1,5.4-2.4"/><path class="cls-5" d="M16.9,210.4c.6-7.3,5.7-14.7,8.3-17.7"/><path class="cls-5" d="M56,197s-.1,1.6-.4,3.9"/><path class="cls-5" d="M4.7,162.8c4.9-14.1,24.2-18,24.2-18"/><path class="cls-5" d="M93.2,187.1s48.8,36.3,110.7,23.4"/><path class="cls-6" d="M202.7,224c-.6,3.8-1.3,7.7-2.1,11.4-53.3,3.1-86.1-16.7-101.9-30C116.8,216.3,161,238.3,202.7,224Z"/><path class="cls-5" d="M98.7,205.4h0A70.1,70.1,0,0,1,87.4,194"/><path class="cls-5" d="M154.4,40.8s36-15.3,81.6-7.1"/><path class="cls-5" d="M304.7,308.9l-2.1.6"/><path class="cls-5" d="M218.6,320a46.4,46.4,0,0,1-5.2,1.8"/><path class="cls-5" d="M153.9,334c-.6-1.7-1-3.3-1.4-4.9"/><path class="cls-5" d="M167.9,293.8a17.5,17.5,0,0,0-2.4,1.1"/><path class="cls-5" d="M234.8,284.5a9.7,9.7,0,0,1-2.2-3.9"/><path class="cls-5" d="M291.9,256a32,32,0,0,0-6.8-4.2"/><path class="cls-5" d="M229,343.1a46,46,0,0,1-5.1,1.4"/><path class="cls-5" d="M230.4,300.8l-1.3-1.8"/><path class="cls-5" d="M242.7,341.9a41.7,41.7,0,0,1-5.7,2.6"/><path class="cls-5" d="M244.4,300.9a23.4,23.4,0,0,0-4.8-1.9"/><path class="cls-5" d="M248.9,342.2a62.3,62.3,0,0,0,11.8-8"/><path class="cls-5" d="M255.3,298.5a28.2,28.2,0,0,1,4.8,1"/><path class="cls-5" d="M273.8,330.7a17.2,17.2,0,0,1-4.5,1.6"/><path class="cls-5" d="M274.2,295.7a10.4,10.4,0,0,0-2.1-.3"/><path class="cls-5" d="M292.9,328.2l2.2-3.2h0"/><path class="cls-5" d="M295.1,296.1a18.7,18.7,0,0,0-4.8-3.8"/><path class="cls-5" d="M282.4,54.4v4.9"/><path class="cls-5" d="M190,169h0c-2.1-.3-4.2-.6-6.4-1.1"/><path class="cls-5" d="M262.8,127.1h0c1.1-1.9,1.6-3,1.6-3"/><path class="cls-5" d="M238.2,189.6l-5.4-.4"/><path class="cls-5" d="M202,178.6l-.9-.6-1.7-1.4"/><path class="cls-5" d="M209.9,221.2a71.2,71.2,0,0,1-7.2,2.8"/><path class="cls-5" d="M98.7,205.4h0c-5.3-3.2-8.4-5.4-8.4-5.4"/><path class="cls-5" d="M4.7,162.8a36.1,36.1,0,0,1-1.2-6"/><path class="cls-5" d="M63.6,181.4s1.1,5.4-4.6,14.6"/><path class="cls-5" d="M11.6,206.8a38.9,38.9,0,0,0,5.3,3.6"/><path class="cls-6" d="M120.1,163.4a.8.8,0,0,1-.1.4,17.2,17.2,0,0,1-2.8,7.6c-5.7,7.9-14.8,13.8-23.2,13.1a13.8,13.8,0,0,1-6.1-1.8l2.4-1.6h0a39.3,39.3,0,0,0,5.9-1.5,16.7,16.7,0,0,0,10.2-8.6c4.7-9,2.5-22.2.5-29.9l1.4-.4C115.2,145.3,120.8,154.7,120.1,163.4Z"/><path class="cls-6" d="M94,184.5a11.5,11.5,0,0,1-.8,2.6,24,24,0,0,1-5.8,6.9,21.9,21.9,0,0,1-13.5,5,43.8,43.8,0,0,0-.8-4.4,2.5,2.5,0,0,1-.2-.7l-.3-1c5.9-3,6.6-8.4,6.3-12.1a22.7,22.7,0,0,0,7.1.8h.1l1.8,1.1A13.8,13.8,0,0,0,94,184.5Z"/><path class="cls-5" d="M90.3,181.1a34.1,34.1,0,0,1-4.2.5"/><path class="cls-5" d="M66.5,170.7a19.3,19.3,0,0,0,12.4,10.1"/><path class="cls-5" d="M106.9,141.1c-.1-.6-.3-1-.4-1.5-.9-3.1-1.6-5-1.6-5"/><path class="cls-5" d="M78.9,180.8a18,18,0,0,0-.8-4"/><path class="cls-5" d="M75.8,192.9a20.1,20.1,0,0,1-2.7,1.7"/><path class="cls-5" d="M59,196a26.8,26.8,0,0,1-5.7-2"/><path class="cls-5" d="M64.7,111.9a16.4,16.4,0,0,1-.2,2.3"/><path class="cls-5" d="M30.4,146.8h-.7"/><path class="cls-6" d="M53.4,142.8l-.5.6c-2.5,1.4-5.5,3.2-8.5,5.2l-2.4.7c-6,1.4-9.6-.5-11.6-2.5h.1a8.3,8.3,0,0,1-1.6-2l-.4-.6h-.1a31.8,31.8,0,0,1-4.1-18.5C28.6,135.3,37.6,148.5,53.4,142.8Z"/><path class="cls-5" d="M44.4,148.6h0"/><path class="cls-5" d="M52.9,143.4l2.3-1.3h.1l4.1-2.1"/><path class="cls-5" d="M59.5,139.9h-.1a22.8,22.8,0,0,1-4.1,2.1h-.1l-1.8.7"/><path class="cls-5" d="M24.3,125.6a65,65,0,0,1-3.2-9.5"/><path class="cls-5" d="M36.2,170.7a19.7,19.7,0,0,1-3.2,6.5"/><path class="cls-5" d="M4.2,176.2c-1.5-1.8-2.9-3.6-4.2-5.5"/><path class="cls-6" d="M31.4,188.6a10.3,10.3,0,0,1-6.5,4.5,12.5,12.5,0,0,1-7.3-1c-8.2-3.2-11.8-10.5-13.4-15.9a40.9,40.9,0,0,0,7.7,7.3c7.3,5.1,16.2.5,21.1-6.3a10.4,10.4,0,0,0,.4,1C34.4,179.9,33.9,184.8,31.4,188.6Z"/><path class="cls-5" d="M33,177.2c-1.2-4,.2-12.8.2-12.8"/><path class="cls-5" d="M4.2,176.2A29.2,29.2,0,0,1,3,169.6"/><path class="cls-5" d="M56.2,139a16.2,16.2,0,0,1-2.8,3.8"/><path class="cls-5" d="M52.9,143.4a22.5,22.5,0,0,1-8.5,5.2"/><path class="cls-5" d="M30.4,146.8a8,8,0,0,1-1.6-1.9,2.6,2.6,0,0,1-.3-.7"/><path class="cls-6" d="M239.6,258.8l-4.8,25.7-3.3,17.9h0l-1.1-1.6c1.9-13.4,3.9-47.2,3.9-47.2,0-5-2.5-11.8-2.8-12.4C233.9,245.1,239.6,254.7,239.6,258.8Z"/><path class="cls-5" d="M230.5,239.5l1,1.7h0"/><path class="cls-5" d="M229.5,305.6a38.5,38.5,0,0,0,.8-4c0-.2.1-.5.1-.8"/><path class="cls-5" d="M231.5,241.2h0"/><path class="cls-5" d="M198.8,314.9l-3.4-2.8"/><path class="cls-5" d="M188.9,248.3s-.8,1.7-1.8,4.6"/><line class="cls-5" x1="205.5" y1="313" x2="214" y2="314.9"/><path class="cls-5" d="M201.4,171.6l-4.4.6"/><path class="cls-5" d="M125,161.4c-2.3-1.5-4-2.9-5.4-4a34.7,34.7,0,0,1-3.1-3.1"/><path class="cls-4" d="M302.6,301.8c.1-3.4.2-7.4.3-11.6a172.6,172.6,0,0,1,1.4-17.4c.7-4,1-8.2-1.4-11.8-6.7-9.4-23.2-3.3-31.8-.4-10.5,3.4-21-3.5-21-3.5-17.9-12-20-37.4-18.4-57.1a195.9,195.9,0,0,1,4.4-28.6"/><path class="cls-4" d="M302.9,290.2s20.6-6.9,32.9-33.1c10.4-22.4,13.3-51.8,33.1-68.6,25.6-21.6,68-4.9,86.6,18.3a66.1,66.1,0,0,1,14,40.8c-.1,16-9.6,40.2-30,32.8-8.1-3-14.4-10.4-18.9-17.6-5.7-9-7.4-25.5-19.9-27.4-9.9-1.5-22.3,5.2-28.2,12.9-17.1,22.3-38.5,60.4-67.7,63.2"/><path class="cls-4" d="M201.9,177.9c.5,4.5,1,9,1.4,13.6s.5,7.5.6,11.3.1,5.1,0,7.7a139.3,139.3,0,0,1-3.3,24.9l-1.8,8.2c-.5,2.2-1,4.4-1.4,6.7-2.3,12.6-3.2,26,1,38.3a42,42,0,0,0,16.2,21.1"/><path class="cls-4" d="M203.9,202.8s16.3,1.3,27.8-2.8"/><path class="cls-4" d="M203.3,191.5s15.7,4.1,29.5-1.9"/><path class="cls-4" d="M255.3,120.6S327,71.7,369,62.9"/><path class="cls-4" d="M257.1,122.4s64.7-24.5,99.7-21"/><path class="cls-4" d="M159.1,45.4C127.7,12.2,82.2,15.7,82.2,15.7s34,29.7,41.5,47.2"/><path class="cls-4" d="M230.8,38.4l5.2-4.7C246,24.9,269.5,6.2,294.6.8l.9-.2c1,5.4,8,44.6,2.1,70.4"/><path class="cls-4" d="M257.1,54.4q1.3-3.3,3-6.6c10.6-21.4,30.3-42.6,34.5-47"/><path class="cls-4" d="M92.7,144.1a126.4,126.4,0,0,1-15.8-17.6L70,117.1a131.4,131.4,0,0,1,9.6-16c8.5-12.4,22.7-29.5,42.5-41.5l.3-.2"/><path class="cls-4" d="M260.1,47.8c8.6,3.6,25,11.4,37.5,23.2a57.1,57.1,0,0,1,12.6,16.4,34.9,34.9,0,0,1,2,4.4,96,96,0,0,1-5.4,15.4c-8.6,19.7-29.5,52.9-75.5,65.8h0c-3.6,1-7.3,1.9-11.2,2.6h0c-2.4.5-4.8.9-7.3,1.2s-7.2.9-10.9,1.1a201.1,201.1,0,0,1-42.3-1.8,124.2,124.2,0,0,1-39.2-12.6h-.3"/><path class="cls-4" d="M82.2,15.7s-7,72.8-2.6,85.4"/><path class="cls-4" d="M220.9,78.3s16.9-11.9,27.4-6.6"/><path class="cls-4" d="M174.9,83.9s16.6-11.2,32.8-5.6"/><path class="cls-4" d="M159.7,292.3c.6-3,1.5-7.5,2.9-14.3,5.2-24.1,34-27.6,34.8-27.7h0"/><path class="cls-4" d="M211.6,328.8s-28,7-40.4,5.5-15.6-10.8-12.3-26c2.2-10.5,13-7.6,19.6-4.8a25.1,25.1,0,0,1,8.1,5.6l1.7,1.7"/><path class="cls-4" d="M174.7,302.1s-19.1-20.6-33-4.8-1.5,32.9,20.2,33.1"/><path class="cls-4" d="M219.6,242.4s-4.5,67.1-6.2,79.4.3,18.4,6.2,19.7,21.3,6.2,25.9-11.1-16.4-29.5-16.4-29.5"/><line class="cls-4" x1="239.6" y1="258.8" x2="231.5" y2="302.4"/><path class="cls-4" d="M233.9,304.2s14.8-8.7,21.6,1.8,7.2,26.9,0,31.8-19.4,4.3-19.4,4.3"/><path class="cls-4" d="M252.7,303s16.6-11,23.6,1.3-2.4,28.9-17.8,30.2"/><path class="cls-4" d="M268.8,298.7s12.6-9.2,19.7-1,5.3,24.1-3.4,29.3c0,0-8.1,4.3-16.3,3.9"/><path class="cls-4" d="M286,295.7s17.5-3.7,18.8,13.8-22.4,18.8-22.4,18.8"/><path class="cls-4" d="M56,162.6s5.5-4.2,17.6-9.7l.5-.3c5-2.2,11-4.6,18.1-7.1l1.5-.5c4.5-1.4,9.3-2.9,14.6-4.3a346.7,346.7,0,0,1,55.5-9.9c5.8-.6,11.8-1,18.1-1.4"/><path class="cls-4" d="M63.9,201.5s53.3-49.9,118-56.7"/><path class="cls-4" d="M164.4,115.4s-11.7,49.4,48.4,61.4"/><path class="cls-4" d="M262.3,124.1s7.8,27.8-31,48.9"/><path class="cls-4" d="M231.7,138s.3,29.7-11.6,37.6"/><path class="cls-4" d="M218.9,103.4a79.9,79.9,0,0,0-18,7.5,9.9,9.9,0,0,0-.5,17.2,61.8,61.8,0,0,0,31.1,9.9,8.2,8.2,0,0,0,5.3-1.7c6.7-5.4,12.6-13.9,16.4-20.4a8.9,8.9,0,0,0-5.7-13.2A55,55,0,0,0,218.9,103.4Z"/><path class="cls-4" d="M54.2,143.4s-17.4,13.4-25.3,1.4-6.2-32.9,7.8-38.1,26.3,0,29.8,12.2,5.4,31.3,7.1,34"/><path class="cls-4" d="M66.5,148.6a66.2,66.2,0,0,1,6.7,3.5l.9.5c3.2,2,6.5,4.3,8.1,6.6,3.5,5.2,8.7,3.4,8.7-.1,0-1.9-.2-8.3,1.3-13.6.2-.4.3-.9.5-1.4,1.5-4,4.2-6.9,9.1-6.1a15.8,15.8,0,0,1,6.5,2.7c6.9,4.6,12.5,14,11.8,22.7a.8.8,0,0,1-.1.4,17.2,17.2,0,0,1-2.8,7.6c-7.1,9.8-19.6,16.6-29.3,11.3a17.6,17.6,0,0,1-6.4-5.9"/><path class="cls-4" d="M94.4,184.5s-5,14.2-20.8,14.5"/><path class="cls-4" d="M53.3,210.6a26.7,26.7,0,0,0,14.9-.8c5.2-1.7,6.1-6.5,5.7-10.8a32.9,32.9,0,0,0-1-5.1,27.6,27.6,0,0,0-1.2-3.3"/><path class="cls-4" d="M56,197s-1.8,35.6-26.3,28.6-7.6-31.7-3.5-33.8c12.3-6.5,5.3-22.2,5.3-22.2"/><path class="cls-4" d="M28.9,144.8S.6,150.5,3.8,173.2s21.4,19.5,21.4,19.5"/><path class="cls-4" d="M93.2,187.1s48.8,36.3,110.7,23.4"/><path class="cls-4" d="M87.4,194s34,46,113.2,41.4"/><path class="cls-4" d="M154.4,40.8s36-15.3,81.6-7.1"/><path class="cls-4" d="M185.2,309.7a82.9,82.9,0,0,0,21.2,3.3"/></g></g></svg>